<svg width="126" height="32" viewBox="0 0 126 32" fill="none" xmlns="http://www.w3.org/2000/svg">
<path d="M0 4.46067H4.96001V23.1017H14.137V27.8294H0V4.46067ZM16.3259 11.998H21.0851V27.819H16.3259V11.998ZM18.7055 4.12891C19.2516 4.12891 19.7854 4.29612 20.2395 4.6094C20.6936 4.92269 21.0475 5.36797 21.2564 5.88894C21.4654 6.40991 21.5201 6.98318 21.4136 7.53624C21.307 8.0893 21.0441 8.59731 20.6579 8.99605C20.2717 9.39478 19.7798 9.66632 19.2442 9.77633C18.7085 9.88634 18.1534 9.82988 17.6488 9.61409C17.1443 9.3983 16.7131 9.03286 16.4097 8.564C16.1063 8.09514 15.9443 7.54391 15.9443 6.98001C15.9443 6.22385 16.2352 5.49866 16.7531 4.96398C17.2709 4.42929 17.9732 4.12891 18.7055 4.12891ZM41.0055 4.46067H45.7647V18.4259L51.1665 11.9772H57L50.7548 19.3072L56.8695 27.8294H50.8853L45.8249 20.0018H45.7647V27.8294H41.0055V4.46067ZM23.7257 11.998H28.264V14.1648H28.3243C28.7821 13.3577 29.4428 12.6935 30.2365 12.2427C31.0302 11.7918 31.9272 11.5712 32.8325 11.604C37.662 11.604 38.5455 14.8802 38.5455 19.1413V27.8294H33.8265V20.1262C33.8265 18.2911 33.8265 15.9791 31.3465 15.9791C28.8665 15.9791 28.4849 17.9801 28.4849 20.0433V27.8708H23.7257V11.998Z" fill="white"/>
<path d="M66.9558 17.8499C66.9654 17.4652 66.8971 17.0825 66.7551 16.7251C66.6131 16.3677 66.4003 16.0431 66.1297 15.7709C65.8592 15.4988 65.5364 15.2848 65.1811 15.142C64.8258 14.9991 64.4453 14.9304 64.0628 14.94C63.2389 14.8876 62.4276 15.1636 61.8043 15.7081C61.1811 16.2526 60.7959 17.022 60.7323 17.8499H66.9558ZM70.9325 24.6196C70.146 25.5676 69.1603 26.3284 68.0463 26.8471C66.9323 27.3658 65.7178 27.6296 64.4903 27.6194C59.7779 27.6194 56 24.4596 56 19.5498C56 14.6401 59.7779 11.4902 64.4903 11.4902C68.8945 11.4902 71.6583 14.6501 71.6583 19.5498V21.0398H60.7223C60.8522 21.8874 61.2837 22.6588 61.9365 23.2105C62.5893 23.7623 63.419 24.0569 64.2716 24.0396C64.9431 24.0386 65.6034 23.8667 66.191 23.5397C66.7786 23.2127 67.2743 22.7414 67.6319 22.1697L70.9325 24.6196ZM81.4907 15.68C80.7212 15.6561 79.9621 15.8638 79.3106 16.2764C78.6591 16.6891 78.1449 17.2879 77.8338 17.9962C77.5227 18.7046 77.4289 19.4902 77.5644 20.2525C77.6999 21.0147 78.0585 21.719 78.5943 22.2751C79.1301 22.8311 79.8187 23.2137 80.572 23.3738C81.3252 23.5338 82.1088 23.4641 82.8225 23.1736C83.5361 22.883 84.1473 22.3849 84.5778 21.7428C85.0082 21.1008 85.2384 20.3442 85.2387 19.5698C85.2809 19.056 85.2129 18.539 85.0392 18.0539C84.8655 17.5688 84.5903 17.1269 84.2321 16.7581C83.8738 16.3893 83.441 16.1021 82.9629 15.9161C82.4848 15.7301 81.9726 15.6496 81.4609 15.68M89.6131 27.2595H85.2387V25.2596C84.6923 25.9927 83.9861 26.5901 83.1744 27.0061C82.3627 27.4221 81.4671 27.6456 80.5562 27.6594C76.0227 27.6594 73.0402 24.3696 73.0402 19.7198C73.0402 15.45 75.6847 11.5302 79.9994 11.5302C80.9066 11.45 81.8197 11.5898 82.6621 11.9378C83.5045 12.2857 84.2517 12.8318 84.8411 13.5301H84.9007V4.73054H89.6131V27.2595ZM123.614 0.000769355H96.5326C96.2251 -0.00321664 95.9198 0.0544373 95.6347 0.170366C95.3495 0.286296 95.0902 0.458178 94.8718 0.675988C94.6534 0.893798 94.4803 1.15317 94.3626 1.43898C94.2449 1.72479 94.185 2.03131 94.1863 2.34066V29.6893C94.1889 29.9962 94.2517 30.2994 94.3712 30.5818C94.4906 30.8641 94.6643 31.1199 94.8823 31.3346C95.1004 31.5492 95.3584 31.7184 95.6416 31.8324C95.9248 31.9465 96.2276 32.0032 96.5326 31.9992H123.614C123.922 32.0072 124.228 31.9536 124.516 31.8414C124.803 31.7293 125.065 31.5609 125.287 31.346C125.509 31.1311 125.686 30.874 125.809 30.5896C125.931 30.3052 125.996 29.9992 126 29.6893V2.34066C126 2.02826 125.938 1.71901 125.817 1.43114C125.697 1.14327 125.52 0.88261 125.298 0.664529C125.075 0.446448 124.812 0.275363 124.523 0.161364C124.233 0.0473654 123.924 -0.00724073 123.614 0.000769355ZM103.611 27.2694H98.8987V12.0002H103.611V27.2694ZM101.255 9.93029C100.714 9.93029 100.186 9.76901 99.736 9.46685C99.2864 9.16469 98.936 8.73522 98.7291 8.23275C98.5221 7.73028 98.468 7.17737 98.5735 6.64395C98.679 6.11053 98.9394 5.62055 99.3217 5.23597C99.7041 4.8514 100.191 4.5895 100.722 4.48339C101.252 4.37729 101.802 4.43175 102.301 4.63988C102.801 4.84801 103.228 5.20047 103.528 5.65268C103.829 6.10489 103.989 6.63655 103.989 7.18042C103.989 7.90973 103.701 8.60917 103.188 9.12487C102.675 9.64057 101.98 9.93029 101.255 9.93029ZM121.268 27.2694H116.555V19.8498C116.555 18.0799 116.555 15.85 114.11 15.85C111.664 15.85 111.276 17.7799 111.276 19.7698V27.3194H106.564V12.0002H111.087V14.1001H111.147C111.602 13.3235 112.256 12.6849 113.042 12.2519C113.828 11.8189 114.715 11.6075 115.611 11.6402C120.383 11.6402 121.268 14.8001 121.268 18.9099V27.2694Z" fill="white"/>
</svg>
