<svg width="15" height="12" viewBox="0 0 15 12" fill="none" xmlns="http://www.w3.org/2000/svg">
<g id="bxs:up-arrow">
<path id="Vector" d="M13.125 2.62495L1.87501 2.62494C1.76111 2.62523 1.64946 2.65003 1.55209 2.69668C1.45471 2.74333 1.37529 2.81006 1.32239 2.88969C1.26948 2.96932 1.24508 3.05884 1.25182 3.1486C1.25856 3.23837 1.29618 3.32498 1.36063 3.39912L6.98563 9.8136C7.21876 10.0795 7.78001 10.0795 8.01376 9.8136L13.6388 3.39912C13.7039 3.32514 13.742 3.23848 13.7492 3.14857C13.7563 3.05865 13.732 2.96892 13.6791 2.88912C13.6261 2.80932 13.5465 2.7425 13.4488 2.69593C13.3511 2.64935 13.2391 2.6248 13.125 2.62495Z" fill="#7C7C7C"/>
</g>
</svg>
