<svg width="61" height="45" viewBox="0 0 61 45" fill="none" xmlns="http://www.w3.org/2000/svg">
<path d="M14.6363 44C12.3727 44 10.4363 43.2025 8.8272 41.58C7.21811 39.9575 6.4272 38.0325 6.4272 35.7225H3.69993C2.93629 35.7225 2.28175 35.4475 1.76357 34.925C1.24538 34.4025 0.972656 33.7425 0.972656 32.9725V5.5C0.999929 3.9875 1.54538 2.695 2.60902 1.6225C3.67266 0.55 4.95447 0 6.45447 0H39.1817C40.6817 0 41.9636 0.55 43.0272 1.6225C44.0908 2.695 44.6363 3.9875 44.6363 5.5V11H50.0908C50.9636 11 51.7817 11.1925 52.5454 11.5775C53.309 11.9625 53.9636 12.5125 54.4545 13.2L60.4545 21.2575C60.6454 21.4775 60.7818 21.7525 60.8636 22.0275C60.9454 22.3025 60.9999 22.605 60.9999 22.935V33.055C60.9999 33.825 60.7272 34.485 60.209 35.0075C59.6908 35.53 59.0363 35.805 58.2727 35.805H55.5454C55.5454 38.0875 54.7545 40.04 53.1454 41.6625C51.5363 43.285 49.6272 44.0825 47.3363 44.0825C45.0454 44.0825 43.1363 43.285 41.5272 41.6625C39.9181 40.04 39.1272 38.115 39.1272 35.805H22.7636C22.7636 38.0875 21.9727 40.04 20.3636 41.6625C18.7545 43.285 16.8454 44.0825 14.5545 44.0825L14.6363 44ZM14.6363 38.5C15.3999 38.5 16.0545 38.225 16.5727 37.7025C17.0908 37.18 17.3636 36.52 17.3636 35.75C17.3636 34.98 17.0908 34.32 16.5727 33.7975C16.0545 33.275 15.3999 33 14.6363 33C13.8727 33 13.2181 33.275 12.6999 33.7975C12.1817 34.32 11.909 34.98 11.909 35.75C11.909 36.52 12.1817 37.18 12.6999 37.7025C13.2181 38.225 13.8727 38.5 14.6363 38.5ZM47.3636 38.5C48.1272 38.5 48.7817 38.225 49.2999 37.7025C49.8181 37.18 50.0908 36.52 50.0908 35.75C50.0908 34.98 49.8181 34.32 49.2999 33.7975C48.7817 33.275 48.1272 33 47.3636 33C46.5999 33 45.9454 33.275 45.4272 33.7975C44.909 34.32 44.6363 34.98 44.6363 35.75C44.6363 36.52 44.909 37.18 45.4272 37.7025C45.9454 38.225 46.5999 38.5 47.3636 38.5ZM44.6363 24.75H56.2272L50.0908 16.5H44.6363V24.75Z" fill="#5E6787"/>
</svg>
