<svg width="173" height="66" viewBox="0 0 173 66" fill="none" xmlns="http://www.w3.org/2000/svg">
<g id="Layer_1" clip-path="url(#clip0_98_2240)">
<g id="Logo S&#38;amp;E 2024">
<g id="Clip path group">
<mask id="mask0_98_2240" style="mask-type:luminance" maskUnits="userSpaceOnUse" x="0" y="0" width="211" height="66">
<g id="clippath">
<path id="Vector" d="M210.908 0H0V66H210.908V0Z" fill="white"/>
</g>
</mask>
<g mask="url(#mask0_98_2240)">
<g id="Group">
<path id="Vector_2" d="M76.9531 16.1289H74.8047V49.8743H76.9531V16.1289Z" fill="#2ED9C3"/>
<g id="Clip path group_2">
<mask id="mask1_98_2240" style="mask-type:luminance" maskUnits="userSpaceOnUse" x="0" y="0" width="211" height="66">
<g id="clippath-1">
<path id="Vector_3" d="M210.908 0H0V66H210.908V0Z" fill="white"/>
</g>
</mask>
<g mask="url(#mask1_98_2240)">
<g id="Group_2">
<path id="Vector_4" d="M84.3898 26.1913H88.056C88.2254 27.6446 89.2573 28.455 90.6879 28.455C91.9664 28.455 92.6618 27.8322 92.6618 26.9267C92.6618 26.4164 92.4948 26.0212 92.1534 25.7561C91.8144 25.491 91.1764 25.2458 90.2168 25.0407C86.5132 24.1928 84.9705 22.757 84.9705 20.2107C84.9705 17.4742 87.1139 15.7383 90.4785 15.7383C93.8432 15.7383 95.7996 17.4742 96.1187 20.2857H92.5671C92.3976 19.1726 91.7371 18.4747 90.5159 18.4747C89.3869 18.4747 88.694 19.0976 88.694 19.9455C88.694 20.851 89.2573 21.3413 90.7601 21.6989C94.6706 22.6044 96.4003 24.1327 96.4003 26.604C96.4003 29.5106 94.0675 31.209 90.6106 31.209C86.9992 31.209 84.6465 29.1329 84.3848 26.1913" fill="#0033A1"/>
<path id="Vector_5" d="M98.207 24.9659V16.1162H102.003V25.211C102.003 27.097 103 28.0976 104.784 28.0976C106.569 28.0976 107.568 27.097 107.568 25.211V16.1162H111.347V24.9659C111.347 29.0781 108.675 31.2117 104.787 31.2117C100.899 31.2117 98.2095 29.0806 98.2095 24.9659" fill="#0033A1"/>
<path id="Vector_6" d="M113.936 30.834V16.1162H119.105L122.452 26.2291L125.724 16.1162H130.819V30.834H127.284V20.1358L123.882 30.834H120.667L117.245 20.0958V30.834H113.936Z" fill="#0033A1"/>
<path id="Vector_7" d="M133.547 30.834V16.1162H138.718L142.063 26.2291L145.333 16.1162H150.43V30.834H146.896V20.1358L143.491 30.834H140.279L136.854 20.0958V30.834H133.547Z" fill="#0033A1"/>
<path id="Vector_8" d="M156.931 16.1162H153.152V30.834H156.931V16.1162Z" fill="#0033A1"/>
<path id="Vector_9" d="M162.831 30.834V19.1528H158.547V16.1162H170.879V19.1528H166.612V30.834H162.831Z" fill="#0033A1"/>
<path id="Vector_10" d="M84.7012 45.5041C84.7012 43.1003 86.0271 41.7521 88.5917 40.8066C87.201 39.4133 86.6477 38.3403 86.6477 36.902C86.6477 34.5207 88.6141 32.6973 91.8841 32.6973C93.5514 32.6973 94.8325 33.105 95.7322 33.8979C96.6519 34.6908 97.1005 35.7214 97.1005 36.9445C97.1005 39.0681 95.5204 40.5264 93.4667 41.4719L95.8818 43.8107C96.3752 43.1028 96.7366 41.9872 96.8438 41.1292H100.498C100.328 42.5225 99.3436 44.7737 98.2121 46.0418L102.187 49.8589H97.8283L96.1609 48.2505C94.5135 49.7313 92.9134 50.2891 90.7127 50.2891C86.9468 50.2891 84.7012 48.1405 84.7012 45.5041ZM91.1563 47.2C92.3526 47.2 93.2947 46.8148 93.9776 46.1269L90.4709 42.7151C89.1275 43.2954 88.5917 44.0458 88.5917 45.0763C88.5917 46.3845 89.5512 47.2 91.1563 47.2ZM91.6473 39.7135C92.9084 39.1332 93.6362 38.2127 93.6362 37.1621C93.6362 36.2391 92.9732 35.6188 91.9688 35.6188C90.8572 35.5988 90.2167 36.2416 90.2167 37.2497C90.2167 38.0226 90.5806 38.6654 91.413 39.5009L91.6498 39.7135H91.6473Z" fill="#0033A1"/>
<path id="Vector_11" d="M106.951 49.8588V33.1299H118.73V36.5817H111.141V39.7784H117.681V43.1027H111.141V46.4044H119.136V49.8563H106.951V49.8588Z" fill="#0033A1"/>
<path id="Vector_12" d="M119.654 49.8588L125.275 41.4293L119.697 33.1299H124.784L128.158 38.5778L131.535 33.1299H136.238L130.83 41.2817L136.453 49.8613H131.388L127.949 44.2208L124.422 49.8613H119.654V49.8588Z" fill="#0033A1"/>
<path id="Vector_13" d="M137.782 49.8588V33.1299H144.877C149.109 33.1299 151.395 35.5337 151.395 38.9004C151.395 42.2672 149.109 44.671 144.855 44.671H142.076V49.8613H137.779L137.782 49.8588ZM142.079 41.4093H144.474C146.183 41.4093 147.126 40.5513 147.126 38.9205C147.126 37.2896 146.183 36.4316 144.474 36.4316H142.079V41.4093Z" fill="#0033A1"/>
<path id="Vector_14" d="M152.484 41.4944C152.484 36.4317 156.18 32.6997 161.718 32.6997C167.256 32.6997 170.953 36.4342 170.953 41.4944C170.953 46.5546 167.299 50.289 161.718 50.289C156.138 50.289 152.484 46.5345 152.484 41.4944ZM166.419 41.4944C166.419 38.4252 164.54 36.4117 161.716 36.4117C158.892 36.4117 157.035 38.4302 157.035 41.4944C157.035 44.5585 158.937 46.5771 161.716 46.5771C164.495 46.5771 166.419 44.5385 166.419 41.4944Z" fill="#0033A1"/>
<path id="Vector_15" d="M65.7626 0H0V66H65.7626V0Z" fill="#0033A1"/>
<path id="Vector_16" d="M10.8846 45.1414L8.35742 36.2441H10.6803L12.3202 42.7376L13.9029 36.2441H16.3653L17.9753 42.7526L19.6153 36.2441H21.7736L19.2539 45.1414H16.622L15.0643 38.6954L13.534 45.1414H10.8846Z" fill="#2ED9C3"/>
<path id="Vector_17" d="M26.9053 45.3664C26.1651 45.3664 25.4971 45.2489 24.8915 45.0188C24.2859 44.7861 23.7675 44.461 23.3338 44.0382C22.8976 43.6155 22.5662 43.1203 22.3319 42.555C22.0976 41.9846 21.9805 41.3668 21.9805 40.694C21.9805 40.0211 22.0976 39.4008 22.3319 38.833C22.5662 38.2627 22.9001 37.7724 23.3338 37.3497C23.7675 36.927 24.2859 36.6018 24.8915 36.3692C25.4947 36.1365 26.1651 36.0215 26.9053 36.0215C27.6455 36.0215 28.3135 36.1365 28.9191 36.3692C29.5247 36.6018 30.0432 36.927 30.4768 37.3497C30.913 37.7724 31.2469 38.2677 31.4787 38.833C31.713 39.4033 31.8277 40.0211 31.8277 40.694C31.8277 41.3668 31.7105 41.9872 31.4787 42.555C31.2445 43.1228 30.9105 43.6205 30.4768 44.0382C30.0432 44.461 29.5247 44.7861 28.9191 45.0188C28.316 45.2489 27.6455 45.3664 26.9053 45.3664ZM26.9053 43.4004C27.4063 43.4004 27.8449 43.2903 28.2188 43.0627C28.5926 42.8376 28.8867 42.5199 29.0961 42.1172C29.3054 41.7095 29.4101 41.2367 29.4101 40.6915C29.4101 40.1462 29.3054 39.6709 29.0961 39.2657C28.8842 38.863 28.5951 38.5478 28.2188 38.3202C27.8449 38.0951 27.4063 37.9825 26.9053 37.9825C26.4044 37.9825 25.9707 38.0926 25.5943 38.3202C25.218 38.5453 24.9264 38.8605 24.7146 39.2657C24.5052 39.6709 24.4005 40.1462 24.4005 40.6915C24.4005 41.2367 24.5052 41.7095 24.7146 42.1172C24.9264 42.5224 25.2155 42.8401 25.5943 43.0627C25.9732 43.2853 26.4093 43.4004 26.9053 43.4004Z" fill="#2ED9C3"/>
<path id="Vector_18" d="M33.0254 45.1414V36.2441H37.3346C38.2867 36.2441 39.0294 36.4568 39.5578 36.8845C40.0862 37.3072 40.3503 37.93 40.3503 38.748C40.3503 39.2783 40.2133 39.731 39.9391 40.1037C39.665 40.4764 39.2836 40.7365 38.7976 40.8866C39.1839 40.9591 39.473 41.1117 39.66 41.3468C39.8494 41.5845 39.979 41.9497 40.0488 42.4524L40.2831 44.1133C40.3279 44.4235 40.3852 44.6561 40.4575 44.8137C40.5273 44.9713 40.5921 45.0813 40.6519 45.1464H38.344C38.2842 45.1063 38.2269 45.0163 38.1745 44.8812C38.1222 44.7461 38.0823 44.5836 38.0624 44.3885L37.8805 42.7626C37.8406 42.3974 37.7484 42.1448 37.6063 41.9997C37.4642 41.8546 37.21 41.7821 36.8387 41.7821H35.276V45.1464H33.0279L33.0254 45.1414ZM35.2834 40.2162H36.8735C37.6885 40.2162 38.0973 39.841 38.0973 39.0932C38.0973 38.3453 37.6935 37.9776 36.8835 37.9776H35.2809V40.2162H35.2834Z" fill="#2ED9C3"/>
<path id="Vector_19" d="M41.7578 45.1414V36.2441H44.0532V43.3054H47.7494V45.1414H41.7578Z" fill="#2ED9C3"/>
<path id="Vector_20" d="M48.7266 45.1414V36.2441H52.5772C53.5268 36.2441 54.3567 36.4267 55.0646 36.7919C55.7724 37.1546 56.3232 37.6699 56.712 38.3352C57.1008 39.0006 57.2977 39.786 57.2977 40.6915C57.2977 41.597 57.1033 42.3849 56.712 43.0503C56.3207 43.7181 55.7699 44.2309 55.0646 44.5961C54.3542 44.9613 53.5268 45.1414 52.5772 45.1414H48.7266ZM51.0245 43.3379H52.3928C53.2028 43.3379 53.8184 43.1128 54.2421 42.665C54.6658 42.2148 54.8776 41.5595 54.8776 40.694C54.8776 39.8285 54.6658 39.1757 54.2421 38.7255C53.8209 38.2777 53.2028 38.0526 52.3928 38.0526H51.0245V43.3404V43.3379Z" fill="#2ED9C3"/>
<path id="Vector_21" d="M4.04297 34.3133V26.3091H6.10911V32.6574H9.43388V34.3133H4.04297Z" fill="white"/>
<path id="Vector_22" d="M13.8625 34.5134C13.1995 34.5134 12.5939 34.4083 12.053 34.2007C11.5097 33.9906 11.0411 33.698 10.6499 33.3203C10.2586 32.9401 9.95947 32.4948 9.74763 31.9846C9.53827 31.4718 9.43359 30.9165 9.43359 30.3112C9.43359 29.7059 9.53827 29.1481 9.74763 28.6378C9.95947 28.125 10.2586 27.6798 10.6499 27.3021C11.0411 26.9219 11.5072 26.6292 12.053 26.4191C12.5964 26.209 13.1995 26.1064 13.8625 26.1064C14.5254 26.1064 15.1311 26.2115 15.6744 26.4191C16.2177 26.6267 16.6863 26.9219 17.0751 27.3021C17.4664 27.6823 17.7655 28.125 17.9773 28.6378C18.1867 29.1481 18.2913 29.7059 18.2913 30.3112C18.2913 30.9165 18.1842 31.4743 17.9773 31.9846C17.7655 32.4973 17.4664 32.9426 17.0751 33.3203C16.6838 33.698 16.2177 33.9931 15.6744 34.2007C15.1311 34.4083 14.5279 34.5134 13.8625 34.5134ZM13.8625 32.7425C14.3136 32.7425 14.7074 32.6424 15.0438 32.4373C15.3828 32.2347 15.642 31.952 15.8314 31.5869C16.0208 31.2192 16.113 30.7939 16.113 30.3062C16.113 29.8184 16.0208 29.3882 15.8314 29.023C15.642 28.6578 15.3803 28.3751 15.0438 28.1725C14.7049 27.9699 14.3136 27.8699 13.8625 27.8699C13.4114 27.8699 13.0225 27.9724 12.6836 28.1725C12.3446 28.3751 12.0804 28.6578 11.8935 29.023C11.7041 29.3882 11.6119 29.8134 11.6119 30.3062C11.6119 30.7989 11.7041 31.2217 11.8935 31.5869C12.0829 31.952 12.3471 32.2372 12.6836 32.4373C13.0225 32.6399 13.4163 32.7425 13.8625 32.7425Z" fill="white"/>
<path id="Vector_23" d="M29.9646 26.3091H27.8984V34.3133H29.9646V26.3091Z" fill="white"/>
<path id="Vector_24" d="M39.0995 34.3133V27.9575H36.7617V26.3091H43.4935V27.9575H41.1607V34.3133H39.0995Z" fill="white"/>
<path id="Vector_25" d="M46.281 26.3091H44.2148V34.3133H46.281V26.3091Z" fill="white"/>
<path id="Vector_26" d="M51.1993 34.5181C50.5612 34.5181 49.978 34.413 49.4496 34.2029C48.9188 33.9903 48.4602 33.6977 48.0714 33.3175C47.6826 32.9373 47.3835 32.492 47.1692 31.9818C46.9573 31.469 46.8477 30.9137 46.8477 30.3084C46.8477 29.703 46.9523 29.1453 47.1692 28.635C47.3835 28.1222 47.6826 27.677 48.0714 27.2993C48.4602 26.9191 48.9188 26.6239 49.4496 26.4138C49.9805 26.2012 50.5637 26.0986 51.1993 26.0986C51.9769 26.0986 52.6672 26.2387 53.2654 26.5139C53.8661 26.7915 54.3521 27.1867 54.7259 27.702C55.0973 28.2148 55.3315 28.8276 55.4238 29.5355H53.2978C53.2255 29.0052 53.0012 28.595 52.6324 28.2948C52.2635 27.9971 51.8074 27.8471 51.2715 27.8471C50.8105 27.8471 50.4142 27.9521 50.0777 28.1597C49.7412 28.3673 49.482 28.6575 49.3001 29.0277C49.1182 29.3954 49.0235 29.8231 49.0235 30.3084C49.0235 30.7936 49.1157 31.2188 49.3001 31.589C49.482 31.9567 49.7437 32.2469 50.0777 32.4545C50.4142 32.6621 50.8105 32.7672 51.2715 32.7672C51.8099 32.7672 52.261 32.6171 52.6324 32.3144C53.0012 32.0143 53.2255 31.6016 53.2978 31.0788H55.4238C55.3315 31.7867 55.0973 32.3995 54.7259 32.9122C54.3546 33.4275 53.8685 33.8227 53.2654 34.1004C52.6672 34.3755 51.9769 34.5131 51.1993 34.5131" fill="white"/>
<path id="Vector_27" d="M23.8567 30.5635V31.9593H24.8487C24.4823 32.4796 23.929 32.7572 23.1589 32.7572C22.7252 32.7572 22.3414 32.6571 22.0049 32.457C21.6684 32.2569 21.4068 31.9718 21.2173 31.6016C21.0653 31.3039 20.988 30.9487 20.9606 30.5635H18.7773C18.7998 31.0788 18.882 31.5616 19.0515 31.9993C19.2484 32.5046 19.5275 32.9423 19.8864 33.3075C20.2478 33.6752 20.674 33.9603 21.1625 34.1604C21.6535 34.3606 22.1893 34.4606 22.78 34.4606C23.261 34.4606 23.6947 34.3555 24.1059 34.2305C25.0505 33.9453 25.7459 33.0799 25.7459 33.0799C25.7459 33.0799 25.7459 34.1704 25.7459 34.298H27.1491V30.561H23.8592L23.8567 30.5635Z" fill="white"/>
<path id="Vector_28" d="M26.6105 27.6223C26.2466 27.1371 25.7656 26.7619 25.1749 26.4992C24.5792 26.2341 23.9013 26.104 23.1337 26.104C22.4906 26.104 21.9 26.2066 21.3641 26.4142C20.8283 26.6218 20.3647 26.9119 19.9784 27.2896C19.5896 27.6673 19.2905 28.1151 19.0761 28.6303C18.9416 28.963 18.8643 29.3232 18.8145 29.7009H21.0052C21.0526 29.4458 21.1174 29.2031 21.227 28.998C21.4189 28.6328 21.6881 28.3527 22.0296 28.1501C22.371 27.95 22.7598 27.8524 23.1985 27.8524C23.7218 27.8524 24.153 27.985 24.492 28.2476C24.8309 28.5078 25.0478 28.8755 25.14 29.3532H27.2759C27.1962 28.6854 26.9718 28.1126 26.608 27.6273" fill="white"/>
<path id="Vector_29" d="M36.4946 30.3563C36.0011 29.926 35.221 29.5884 34.1543 29.3432C33.7456 29.2482 33.454 29.1256 33.2845 28.978C33.1175 28.8304 33.0328 28.6353 33.0328 28.3927C33.0328 28.1501 33.1225 27.9625 33.2995 27.8149C33.4764 27.6648 33.7157 27.5898 34.0197 27.5898C34.3587 27.5898 34.6179 27.6798 34.7973 27.8574C34.8248 27.8849 34.8422 27.925 34.8671 27.955H36.9457C36.7937 27.4747 36.537 27.0745 36.1706 26.7619C35.6522 26.3241 34.927 26.104 34.0023 26.104C33.3917 26.104 32.8633 26.2041 32.4122 26.4017C31.9611 26.6018 31.6146 26.8819 31.3704 27.2446C31.1262 27.6073 31.0015 28.035 31.0015 28.5303C31.0015 29.2257 31.2234 29.781 31.6695 30.1937C32.1156 30.6064 32.8459 30.9341 33.8602 31.1667C34.3761 31.2843 34.7301 31.4143 34.917 31.5569C35.1039 31.6995 35.1986 31.9096 35.1986 32.1897C35.1986 32.4324 35.1064 32.6325 34.917 32.79C34.7301 32.9451 34.4659 33.0227 34.1219 33.0227C33.7281 33.0227 33.4016 32.9151 33.1424 32.7C32.8832 32.4874 32.7312 32.1847 32.6789 31.7945H30.6875C30.7324 32.3248 30.8969 32.7951 31.1835 33.2028C31.4701 33.613 31.8614 33.9332 32.3524 34.1658C32.8434 34.4009 33.4166 34.5185 34.0721 34.5185C34.7276 34.5185 35.2609 34.4184 35.7345 34.2208C36.208 34.0207 36.5769 33.7355 36.8411 33.3604C37.1052 32.9877 37.2373 32.5374 37.2373 32.0121C37.2373 31.3418 36.9881 30.789 36.4971 30.3588" fill="white"/>
<path id="Vector_30" d="M59.2416 34.4905C58.5911 34.4905 58.0204 34.3755 57.5319 34.1403C57.0434 33.9077 56.6571 33.5876 56.3704 33.1798C56.0838 32.7721 55.9193 32.3044 55.877 31.7766H57.8584C57.9082 32.1643 58.0602 32.4645 58.3169 32.6796C58.5737 32.8897 58.9001 32.9972 59.289 32.9972C59.6304 32.9972 59.8946 32.9197 60.079 32.7646C60.2659 32.6095 60.3607 32.4119 60.3607 32.1693C60.3607 31.8942 60.2684 31.6815 60.079 31.5415C59.8946 31.3989 59.5432 31.2713 59.0298 31.1538C58.0204 30.9211 57.2951 30.5985 56.8515 30.1883C56.4078 29.778 56.186 29.2252 56.186 28.5349C56.186 28.0421 56.3081 27.6169 56.5524 27.2567C56.7966 26.8965 57.1406 26.6189 57.5867 26.4188C58.0328 26.2211 58.5587 26.1211 59.1668 26.1211C60.089 26.1211 60.8093 26.3412 61.3252 26.7789C61.8411 27.2167 62.1452 27.817 62.2349 28.5874H60.2983C60.256 28.2847 60.1438 28.0446 59.9619 27.8695C59.7799 27.6944 59.5232 27.6044 59.1893 27.6044C58.8877 27.6044 58.6484 27.6794 58.4715 27.827C58.2945 27.9746 58.2073 28.1672 58.2073 28.4023C58.2073 28.6374 58.292 28.84 58.459 28.9876C58.626 29.1327 58.9151 29.2553 59.3238 29.3503C60.3856 29.5929 61.1632 29.9281 61.6517 30.3583C62.1402 30.7861 62.3844 31.3339 62.3844 32.0017C62.3844 32.5245 62.2548 32.9697 61.9906 33.3424C61.7289 33.7151 61.3626 34.0003 60.889 34.1979C60.4205 34.3955 59.8697 34.4955 59.2391 34.4955" fill="white"/>
<path id="Vector_31" d="M29.5965 24.8105C29.1728 24.8105 28.8588 24.718 28.6519 24.5304C28.445 24.3453 28.3428 24.0326 28.3428 23.5949V22.2842H27.7422V21.4513H28.116C28.2431 21.4513 28.3403 21.4287 28.4027 21.3812C28.465 21.3337 28.5123 21.2637 28.5422 21.1736C28.5647 21.0986 28.5921 21.0035 28.612 20.891C28.6344 20.7784 28.6519 20.6633 28.6643 20.5508H29.3522V21.4538H30.1747V22.2867H29.3522V23.4923C29.3522 23.6724 29.3896 23.8025 29.4694 23.8825C29.5466 23.9601 29.6712 24.0026 29.8407 24.0026C29.9055 24.0026 29.9678 23.9976 30.0277 23.9926C30.085 23.9851 30.1473 23.9726 30.2196 23.9526V24.723C30.1448 24.748 30.0501 24.773 29.9354 24.788C29.8183 24.808 29.7061 24.8155 29.599 24.8155" fill="white"/>
<path id="Vector_32" d="M30.6758 24.7632V20.1157H31.7076V21.7216C31.7076 21.7916 31.7275 21.8291 31.7699 21.8291C31.7998 21.8291 31.8347 21.8041 31.8771 21.7491C31.9843 21.6165 32.1139 21.5165 32.2584 21.4464C32.4055 21.3789 32.5774 21.3414 32.7743 21.3414C33.1332 21.3414 33.4148 21.4589 33.6267 21.6941C33.8361 21.9292 33.9407 22.2569 33.9407 22.6821V24.7632H32.9089V22.8697C32.9089 22.6796 32.864 22.5295 32.7793 22.4219C32.6946 22.3119 32.565 22.2594 32.3955 22.2594C32.1836 22.2594 32.0142 22.3394 31.892 22.497C31.7674 22.6546 31.7051 22.8697 31.7051 23.1473V24.7632H30.6758Z" fill="white"/>
<path id="Vector_33" d="M36.1927 24.8682C35.8513 24.8682 35.5447 24.7956 35.2755 24.6481C35.0064 24.5005 34.797 24.2954 34.64 24.0327C34.4855 23.7701 34.4082 23.4624 34.4082 23.1148C34.4082 22.7671 34.4855 22.4619 34.64 22.1968C34.7945 21.9316 35.0064 21.7215 35.273 21.5689C35.5397 21.4163 35.8438 21.3413 36.1852 21.3413C36.5267 21.3413 36.8407 21.4138 37.0999 21.5564C37.3591 21.699 37.5635 21.8966 37.7056 22.1517C37.8501 22.4044 37.9199 22.6945 37.9199 23.0247C37.9199 23.0872 37.9199 23.1598 37.9124 23.2348C37.9049 23.3124 37.9 23.3724 37.89 23.4149H35.4525C35.465 23.6225 35.5397 23.7851 35.6768 23.9077C35.8139 24.0302 35.9858 24.0903 36.1977 24.0903C36.5441 24.0903 36.756 23.9652 36.8407 23.7151H37.8576C37.7728 24.0703 37.5834 24.3504 37.2918 24.5605C37.0077 24.7706 36.6388 24.8707 36.1927 24.8707M36.1977 22.1117C35.9883 22.1117 35.8164 22.1743 35.6843 22.2993C35.5522 22.4244 35.4749 22.587 35.455 22.7871H36.913C36.9005 22.5745 36.8283 22.4094 36.6937 22.2893C36.5616 22.1717 36.3971 22.1092 36.1977 22.1092" fill="white"/>
<path id="Vector_34" d="M70.0278 63.5361V62.538H70.5562C70.7556 62.538 70.9126 62.5806 71.0223 62.6681C71.1319 62.7557 71.1868 62.8757 71.1868 63.0358C71.1868 63.1959 71.1344 63.3185 71.0223 63.4035C70.9151 63.491 70.7556 63.5361 70.5562 63.5361H70.0278ZM71.7799 63.0333C71.7799 62.7306 71.6753 62.493 71.4609 62.3154C71.2491 62.1378 70.96 62.0478 70.5911 62.0478H69.4147V64.8768H70.0303V64.0138H70.6684L71.2266 64.8768H71.8397L71.2117 63.9063C71.3936 63.8287 71.5332 63.7162 71.6304 63.5686C71.7276 63.421 71.7774 63.2434 71.7774 63.0308M70.4715 65.6047C70.0777 65.6047 69.7163 65.5096 69.3948 65.322C69.0708 65.1319 68.8215 64.8768 68.6371 64.5491C68.4552 64.2239 68.3605 63.8612 68.3605 63.4635C68.3605 63.0658 68.4527 62.7056 68.6371 62.378C68.819 62.0528 69.0758 61.7926 69.3998 61.605C69.7238 61.4174 70.0851 61.3224 70.4864 61.3224C70.8877 61.3224 71.2466 61.4149 71.5681 61.605C71.8871 61.7901 72.1388 62.0453 72.3208 62.3705C72.5027 62.6956 72.5924 63.0558 72.5924 63.451C72.5924 63.8462 72.5002 64.2089 72.3108 64.5391C72.1264 64.8668 71.8721 65.1269 71.5481 65.3195C71.2241 65.5096 70.8652 65.6047 70.4715 65.6047ZM70.4864 60.9297C70.0129 60.9297 69.5842 61.0422 69.1979 61.2674C68.8116 61.4925 68.5075 61.7976 68.2832 62.1854C68.0589 62.5731 67.9492 63.0008 67.9492 63.4635C67.9492 63.9263 68.0589 64.354 68.2832 64.7417C68.505 65.1294 68.8091 65.4371 69.1929 65.6622C69.5767 65.8873 70.0029 65.9999 70.469 65.9999C70.935 65.9999 71.3637 65.8873 71.75 65.6622C72.1363 65.4371 72.4429 65.1294 72.6672 64.7392C72.889 64.349 73.0037 63.9188 73.0037 63.4485C73.0037 62.9783 72.8965 62.5505 72.6747 62.1678C72.4553 61.7826 72.1538 61.48 71.77 61.2574C71.3836 61.0397 70.955 60.9297 70.4839 60.9297" fill="#0033A1"/>
</g>
</g>
</g>
</g>
</g>
</g>
</g>
</g>
<defs>
<clipPath id="clip0_98_2240">
<rect width="173" height="66" fill="white"/>
</clipPath>
</defs>
</svg>
