<svg width="194" height="60" viewBox="0 0 194 60" fill="none" xmlns="http://www.w3.org/2000/svg">
<g clip-path="url(#clip0_98_1161)">
<path d="M70.7826 14.6619H68.8065V45.3381H70.7826V14.6619Z" fill="white"/>
<path d="M164.399 14.6619H162.422V45.3381H164.399V14.6619Z" fill="white"/>
<path d="M77.6198 23.806H80.9889C81.147 25.1291 82.0955 25.8642 83.4096 25.8642C84.5854 25.8642 85.2276 25.2957 85.2276 24.4725C85.2276 24.0118 85.0695 23.6492 84.7632 23.414C84.4471 23.169 83.8641 22.9534 82.9848 22.7573C79.5761 21.9831 78.1632 20.6796 78.1632 18.3666C78.1632 15.8772 80.1392 14.2993 83.2318 14.2993C86.3243 14.2993 88.1225 15.8772 88.4189 18.4352H85.1486C84.9905 17.4257 84.3878 16.7887 83.2614 16.7887C82.224 16.7887 81.5818 17.3571 81.5818 18.1314C81.5818 18.9547 82.1054 19.4055 83.4887 19.7289C87.0851 20.5522 88.6758 21.9439 88.6758 24.1882C88.6758 26.8344 86.5318 28.3731 83.3503 28.3731C80.1689 28.3731 77.8668 26.4816 77.6296 23.806H77.6198Z" fill="white"/>
<path d="M90.3258 22.6985V14.6521H93.8234V22.9239C93.8234 24.639 94.7423 25.5505 96.3824 25.5505C98.0226 25.5505 98.9414 24.639 98.9414 22.9239V14.6521H102.419V22.6985C102.419 26.4424 99.9591 28.3731 96.3824 28.3731C92.8058 28.3731 90.3258 26.4326 90.3258 22.6985Z" fill="white"/>
<path d="M104.8 28.0301V14.6521H109.553L112.636 23.8452L115.639 14.6521H120.322V28.0301H117.072V18.3078L113.94 28.0301H110.986L107.834 18.2686V28.0301H104.791H104.8Z" fill="white"/>
<path d="M122.832 28.0301V14.6521H127.585L130.667 23.8452L133.681 14.6521H138.364V28.0301H135.113V18.3078L131.981 28.0301H129.027L125.875 18.2686V28.0301H122.832Z" fill="white"/>
<path d="M140.874 28.0301V14.6521H144.351V28.0301H140.874Z" fill="white"/>
<path d="M149.776 28.0301V17.4159H145.833V14.6521H157.176V17.4159H153.254V28.0301H149.776Z" fill="white"/>
<path d="M77.9062 41.3688C77.9062 39.1833 79.1215 37.9582 81.4829 37.0957C80.2084 35.8314 79.6946 34.8514 79.6946 33.5479C79.6946 31.3819 81.5027 29.7256 84.5162 29.7256C86.0476 29.7256 87.2333 30.098 88.0533 30.8135C88.903 31.5387 89.3081 32.4698 89.3081 33.5871C89.3081 35.5178 87.8557 36.8409 85.9686 37.7034L88.1917 39.8301C88.6462 39.1833 88.9821 38.1738 89.0809 37.3897H92.4402C92.2821 38.654 91.3731 40.7024 90.3357 41.8589L93.9914 45.3283H89.98L88.4485 43.868C86.9369 45.2107 85.4647 45.7204 83.4392 45.7204C79.9811 45.7204 77.9161 43.77 77.9161 41.3688H77.9062ZM83.8443 42.9076C84.941 42.9076 85.8105 42.5547 86.4428 41.9275L83.2219 38.8305C81.9868 39.3597 81.4928 40.0359 81.4928 40.9768C81.4928 42.1627 82.382 42.9076 83.8542 42.9076H83.8443ZM84.2988 36.1059C85.4548 35.5766 86.1267 34.7436 86.1267 33.7831C86.1267 32.9402 85.5141 32.3816 84.5952 32.3816C83.5776 32.362 82.9847 32.95 82.9847 33.8615C82.9847 34.5671 83.3207 35.1454 84.0814 35.9098L84.2988 36.1059Z" fill="white"/>
<path d="M98.3783 45.3284V30.1177H109.207V33.2539H102.232V36.1549H108.249V39.1735H102.232V42.1726H109.583V45.3088H98.3783V45.3284Z" fill="white"/>
<path d="M110.057 45.3284L115.224 37.6642L110.096 30.1177H114.78L117.882 35.067L120.984 30.1177H125.312L120.342 37.527L125.51 45.3284H120.846L117.684 40.2026L114.444 45.3284H110.057Z" fill="white"/>
<path d="M126.725 45.3284V30.1177H133.256C137.149 30.1177 139.253 32.3032 139.253 35.3611C139.253 38.4189 137.149 40.6044 133.236 40.6044H130.677V45.3284H126.725ZM130.677 37.6446H132.88C134.451 37.6446 135.321 36.8606 135.321 35.3807C135.321 33.9008 134.451 33.1167 132.88 33.1167H130.677V37.6446Z" fill="white"/>
<path d="M140.251 37.723C140.251 33.1166 143.65 29.7256 148.748 29.7256C153.846 29.7256 157.245 33.1166 157.245 37.723C157.245 42.3293 153.886 45.7204 148.748 45.7204C143.61 45.7204 140.251 42.3097 140.251 37.723ZM153.076 37.723C153.076 34.9396 151.347 33.1068 148.748 33.1068C146.15 33.1068 144.44 34.9396 144.44 37.723C144.44 40.5064 146.189 42.3489 148.748 42.3489C151.307 42.3489 153.076 40.4966 153.076 37.723Z" fill="white"/>
<path d="M170.08 28.9904C170.08 25.3053 171.107 23.257 175.02 21.1204C176.739 20.1796 177.213 19.6699 177.213 18.7095C177.213 17.8176 176.551 17.1904 175.534 17.1904C174.239 17.1904 173.518 18.0234 173.39 19.4543H170.08C170.426 16.3475 172.402 14.4854 175.544 14.4854C178.685 14.4854 180.395 16.2299 180.395 18.8075C180.395 20.7088 179.426 22.0221 176.759 23.502C174.99 24.5213 174.269 25.2465 174.111 26.2756H180.405V29.0002H170.09L170.08 28.9904Z" fill="white"/>
<path d="M181.986 21.9145C181.986 17.3964 184.367 14.4954 188.003 14.4954C191.639 14.4954 194 17.3964 194 21.9145C194 26.4326 191.639 29.3336 188.003 29.3336C184.367 29.3336 181.986 26.413 181.986 21.9145ZM190.433 21.9145C190.433 18.9253 189.554 17.3572 188.003 17.3572C186.451 17.3572 185.572 18.9155 185.572 21.9145C185.572 24.9135 186.451 26.4522 188.003 26.4522C189.554 26.4522 190.433 24.8939 190.433 21.9145Z" fill="white"/>
<path d="M170.08 45.3088C170.08 41.6237 171.107 39.5754 175.02 37.4388C176.739 36.4979 177.213 35.9883 177.213 35.0278C177.213 34.136 176.551 33.5087 175.534 33.5087C174.239 33.5087 173.518 34.3418 173.39 35.7727H170.08C170.426 32.6658 172.402 30.8037 175.544 30.8037C178.685 30.8037 180.395 32.5482 180.395 35.1258C180.395 37.0272 179.426 38.3405 176.759 39.8204C174.99 40.8396 174.269 41.5649 174.111 42.594H180.405V45.3186H170.09L170.08 45.3088Z" fill="white"/>
<path d="M182.272 41.1434H185.651C185.928 42.2509 186.837 42.9369 188.032 42.9369C189.346 42.9369 190.285 41.9765 190.285 40.5946C190.285 39.2126 189.366 38.3306 188.032 38.3306C187.104 38.3306 186.382 38.7324 185.967 39.3303H182.746L183.883 31.1663H192.439V33.9007H186.481L186.046 37.1643C186.778 36.3116 187.835 35.9294 189.08 35.9294C191.658 35.9294 193.595 37.8307 193.595 40.3789C193.595 43.427 191.421 45.6713 188.131 45.6713C184.633 45.6713 182.756 43.7308 182.282 41.1336L182.272 41.1434Z" fill="white"/>
<path d="M64.4098 57.7654V56.8539H64.8939C65.0816 56.8539 65.22 56.8931 65.3188 56.9715C65.4176 57.0499 65.467 57.1577 65.467 57.3047C65.467 57.4517 65.4176 57.5596 65.3188 57.638C65.22 57.7164 65.0718 57.7556 64.8939 57.7556H64.4098V57.7654ZM66.0203 57.3047C66.0203 57.0303 65.9215 56.8147 65.7238 56.6481C65.5262 56.4913 65.2595 56.4031 64.9235 56.4031H63.8466V58.9807H64.4098V58.1966H64.9927L65.5065 58.9807H66.0697L65.4867 58.0986C65.6547 58.03 65.7831 57.9222 65.8721 57.7948C65.961 57.6576 66.0104 57.5007 66.0104 57.3047M64.8149 59.6471C64.4493 59.6471 64.1232 59.5589 63.8268 59.3923C63.5304 59.2257 63.3032 58.9905 63.1253 58.6866C62.9574 58.3926 62.8684 58.0594 62.8684 57.6968C62.8684 57.3341 62.9574 57.0107 63.1253 56.7069C63.2933 56.4129 63.5304 56.1776 63.8268 56.0012C64.1232 55.8346 64.4592 55.7464 64.8247 55.7464C65.1903 55.7464 65.5262 55.8346 65.8227 56.0012C66.1191 56.1678 66.3463 56.4031 66.5143 56.6971C66.6822 56.9911 66.7613 57.3145 66.7613 57.6772C66.7613 58.0398 66.6724 58.3632 66.5044 58.667C66.3364 58.9611 66.0993 59.2061 65.8029 59.3727C65.5065 59.5491 65.1804 59.6373 64.8149 59.6373M64.8346 55.3936C64.3999 55.3936 64.0047 55.4916 63.649 55.6974C63.2933 55.9032 63.0166 56.1776 62.8092 56.5305C62.6017 56.8833 62.5029 57.2753 62.5029 57.6968C62.5029 58.1182 62.6017 58.5102 62.8092 58.863C63.0166 59.2159 63.2933 59.4903 63.649 59.6961C64.0047 59.9019 64.39 59.9999 64.8247 59.9999C65.2595 59.9999 65.6448 59.9019 66.0005 59.6961C66.3562 59.4903 66.6328 59.2159 66.8403 58.8532C67.0478 58.5004 67.1466 58.1084 67.1466 57.6772C67.1466 57.2459 67.0478 56.8637 66.8403 56.5109C66.6427 56.158 66.3562 55.8836 66.0104 55.6876C65.6547 55.4916 65.2595 55.3838 64.8247 55.3838" fill="white"/>
<path d="M25.9556 34.8417C25.6098 34.6358 25.2047 34.5378 24.7502 34.5378C24.2957 34.5378 23.8906 34.6358 23.5448 34.8417C23.199 35.0475 22.9322 35.3317 22.7346 35.7041C22.537 36.0766 22.4481 36.5078 22.4481 36.9978C22.4481 37.4879 22.5469 37.9191 22.7346 38.2915C22.9322 38.6639 23.199 38.9482 23.5448 39.154C23.8906 39.3598 24.2957 39.4578 24.7502 39.4578C25.2047 39.4578 25.6098 39.3598 25.9556 39.154C26.3014 38.9482 26.5682 38.6639 26.7658 38.2915C26.9634 37.9191 27.0523 37.4879 27.0523 36.9978C27.0523 36.5078 26.9535 36.0668 26.7658 35.7041C26.5682 35.3415 26.3014 35.0475 25.9556 34.8417Z" fill="white"/>
<path d="M11.6686 29.4905C11.9848 29.6767 12.3405 29.7649 12.7555 29.7649C13.1704 29.7649 13.536 29.6767 13.8423 29.4905C14.1486 29.3043 14.3956 29.0494 14.5636 28.7162C14.7414 28.383 14.8205 27.991 14.8205 27.5499C14.8205 27.1089 14.7315 26.7169 14.5636 26.3836C14.3857 26.0504 14.1486 25.7956 13.8423 25.6094C13.536 25.4232 13.1704 25.335 12.7555 25.335C12.3405 25.335 11.9848 25.4232 11.6686 25.6094C11.3525 25.7956 11.1153 26.0504 10.9375 26.3836C10.7596 26.7169 10.6806 27.0991 10.6806 27.5499C10.6806 28.0008 10.7695 28.383 10.9375 28.7162C11.1153 29.0494 11.3525 29.3043 11.6686 29.4905Z" fill="white"/>
<path d="M48.1863 34.5867H46.9315V39.389H48.1863C48.9273 39.389 49.5004 39.1832 49.8857 38.7716C50.2711 38.3599 50.4687 37.7621 50.4687 36.978C50.4687 36.194 50.2711 35.5961 49.8857 35.1943C49.5004 34.7827 48.9273 34.5867 48.1863 34.5867Z" fill="white"/>
<path d="M33.929 34.5278H32.4568V36.5664H33.9191C34.67 36.5664 35.0455 36.2234 35.0455 35.5471C35.0455 34.8709 34.67 34.5376 33.929 34.5376V34.5278Z" fill="white"/>
<path d="M33.7512 20.2679C33.6326 20.1601 33.4745 20.1013 33.2967 20.1013C33.0991 20.1013 32.941 20.1601 32.8224 20.2679C32.7039 20.3855 32.6347 20.5325 32.6149 20.709H33.9587C33.9488 20.5129 33.8796 20.3659 33.761 20.2581L33.7512 20.2679Z" fill="white"/>
<path d="M0 0V60H60.4873V0H0ZM40.6674 23.9138H42.5644V31.1859H40.6674V23.9138ZM31.864 20.1797C32.0023 19.9347 32.1999 19.7484 32.447 19.6112C32.694 19.474 32.9706 19.4054 33.2868 19.4054C33.603 19.4054 33.8895 19.474 34.1266 19.6014C34.3637 19.7288 34.5515 19.9151 34.6799 20.1405C34.8083 20.3659 34.8775 20.6305 34.8775 20.9343C34.8775 20.9931 34.8775 21.0519 34.8775 21.1303C34.8775 21.199 34.8676 21.2578 34.8578 21.297H32.6149C32.6248 21.4832 32.694 21.6302 32.8224 21.7478C32.9509 21.8556 33.1089 21.9144 33.3065 21.9144C33.6227 21.9144 33.8203 21.7968 33.8994 21.5714H34.838C34.7589 21.8948 34.591 22.1496 34.3143 22.3358C34.0476 22.5221 33.7116 22.6201 33.2967 22.6201C32.9805 22.6201 32.7038 22.5515 32.447 22.424C32.1999 22.2868 32.0023 22.1006 31.864 21.8654C31.7257 21.6302 31.6565 21.346 31.6565 21.0323C31.6565 20.7187 31.7257 20.4443 31.8739 20.1993L31.864 20.1797ZM28.2182 18.2881H29.1667V19.7484C29.1667 19.8171 29.1865 19.8465 29.226 19.8465C29.2556 19.8465 29.2853 19.8269 29.3248 19.7778C29.4236 19.6602 29.5421 19.5622 29.6805 19.5034C29.8188 19.4446 29.9769 19.4054 30.1547 19.4054C30.4808 19.4054 30.7475 19.5132 30.9353 19.7288C31.123 19.9445 31.2218 20.2385 31.2218 20.6305V22.5221H30.2733V20.7971C30.2733 20.6207 30.2338 20.4933 30.1547 20.3855C30.0757 20.2875 29.9571 20.2385 29.799 20.2385C29.6014 20.2385 29.4532 20.3071 29.3347 20.4541C29.2161 20.6011 29.1667 20.7971 29.1667 21.0421V22.5122H28.2182V18.2881ZM25.511 19.5034H25.8568C25.9753 19.5034 26.0643 19.4838 26.1236 19.4446C26.1828 19.4054 26.2224 19.3368 26.252 19.2584C26.2718 19.1898 26.3014 19.1016 26.3212 19.0036C26.3409 18.8958 26.3607 18.7978 26.3706 18.69H27.0029V19.5132H27.7637V20.2679H27.0029V21.3656C27.0029 21.5322 27.0424 21.6498 27.1116 21.7184C27.1807 21.787 27.2993 21.8262 27.4574 21.8262C27.5167 21.8262 27.576 21.8262 27.6254 21.8164C27.6748 21.8164 27.734 21.7968 27.8032 21.7772V22.473C27.734 22.4926 27.6451 22.5123 27.5463 22.5319C27.4376 22.5515 27.3388 22.5515 27.24 22.5515C26.8547 22.5515 26.5583 22.4632 26.3706 22.2966C26.1828 22.13 26.084 21.8458 26.084 21.444V20.2483H25.5307V19.4936L25.511 19.5034ZM27.5661 23.9138V31.1859H25.6691V23.9138H27.5661ZM17.5474 26.0209C17.745 25.5505 18.0217 25.1486 18.3774 24.8056C18.7331 24.4626 19.1579 24.198 19.6519 24.0118C20.146 23.8255 20.6894 23.7275 21.2822 23.7275C21.9837 23.7275 22.616 23.8451 23.1595 24.0902C23.7029 24.3254 24.1475 24.6684 24.4834 25.1094C24.8194 25.5505 25.017 26.0699 25.096 26.6776H23.1298C23.0409 26.2463 22.8433 25.9131 22.537 25.6779C22.2208 25.4427 21.8256 25.3153 21.3514 25.3153C20.9463 25.3153 20.5906 25.4035 20.2744 25.5897C19.9582 25.7661 19.7112 26.0307 19.5334 26.3541C19.4346 26.5403 19.3753 26.7658 19.3259 26.9912H17.3103C17.3498 26.6482 17.4289 26.3247 17.5474 26.0209ZM19.2765 27.785C19.3061 28.1379 19.3753 28.4613 19.5136 28.7259C19.6915 29.0591 19.9286 29.3237 20.2349 29.5002C20.5412 29.6766 20.8969 29.7746 21.2921 29.7746C22.0035 29.7746 22.5074 29.5198 22.8433 29.0493H21.9343V27.7752H24.9577V31.1761H23.6634C23.6634 31.0585 23.6634 30.0686 23.6634 30.0686C23.6634 30.0686 23.0211 30.8527 22.1517 31.1173C21.7762 31.2349 21.3711 31.3231 20.9364 31.3231C20.393 31.3231 19.899 31.2349 19.4445 31.0487C18.99 30.8625 18.6046 30.6076 18.2687 30.2744C17.9328 29.9412 17.6858 29.5394 17.498 29.0885C17.34 28.6867 17.2708 28.2555 17.2412 27.785H19.2469H19.2765ZM8.97133 26.0307C9.16893 25.5603 9.44558 25.1584 9.80127 24.8154C10.157 24.4724 10.5917 24.2078 11.0956 24.0118C11.5995 23.8255 12.1528 23.7275 12.7654 23.7275C13.3779 23.7275 13.9312 23.8255 14.4351 24.0118C14.939 24.198 15.3639 24.4724 15.7196 24.8154C16.0753 25.1584 16.3519 25.5603 16.5495 26.0307C16.7471 26.4913 16.8361 27.001 16.8361 27.5498C16.8361 28.0987 16.7373 28.6083 16.5495 29.0689C16.3519 29.5296 16.0852 29.9412 15.7196 30.2842C15.3639 30.6272 14.9292 30.8919 14.4351 31.0879C13.9312 31.2741 13.3779 31.3721 12.7654 31.3721C12.1528 31.3721 11.5995 31.2741 11.0956 31.0879C10.5917 30.9017 10.1668 30.6272 9.80127 30.2842C9.44558 29.9412 9.16893 29.5296 8.97133 29.0689C8.77372 28.6083 8.6848 28.0987 8.6848 27.5498C8.6848 27.001 8.7836 26.4913 8.97133 26.0307ZM3.72488 23.9138H5.6219V29.6864H8.67492V31.1859H3.72488V23.9138ZM17.7154 41.0356H15.2947L13.8621 35.1748L12.4591 41.0356H10.0186L7.69677 32.95H9.83091L11.3426 38.85L12.795 32.95H15.0576L16.5396 38.8696L18.0513 32.95H20.0373L17.7154 41.0356ZM28.9592 38.6834C28.7418 39.2029 28.4355 39.6537 28.0403 40.0359C27.6451 40.4182 27.161 40.7122 26.6077 40.9278C26.0544 41.1434 25.4319 41.2414 24.7601 41.2414C24.0882 41.2414 23.4657 41.1336 22.9125 40.9278C22.3592 40.7122 21.875 40.4182 21.4798 40.0359C21.0747 39.6537 20.7783 39.2029 20.5609 38.6834C20.3436 38.164 20.2349 37.6054 20.2349 36.9879C20.2349 36.3705 20.3436 35.8118 20.5609 35.2924C20.7783 34.7729 21.0846 34.3221 21.4798 33.9399C21.875 33.5577 22.3592 33.2636 22.9125 33.048C23.4657 32.8324 24.0882 32.7344 24.7601 32.7344C25.4319 32.7344 26.0544 32.8422 26.6077 33.048C27.161 33.2636 27.6451 33.5577 28.0403 33.9399C28.4454 34.3221 28.7517 34.7729 28.9592 35.2924C29.1766 35.8118 29.2754 36.3705 29.2754 36.9879C29.2754 37.6054 29.1667 38.164 28.9592 38.6834ZM35.2727 41.0356C35.2134 40.9964 35.164 40.918 35.1146 40.7906C35.0652 40.6632 35.0356 40.5162 35.006 40.3398L34.838 38.8599C34.7985 38.5266 34.7194 38.3012 34.591 38.164C34.4625 38.0268 34.2254 37.968 33.8895 37.968H32.447V41.0258H30.382V32.9402H34.344C35.2233 32.9402 35.9051 33.1362 36.3892 33.5185C36.8733 33.9007 37.1203 34.4691 37.1203 35.214C37.1203 35.6942 36.9919 36.1058 36.7449 36.4489C36.4979 36.7919 36.1422 37.0271 35.6976 37.1643C36.0533 37.2329 36.32 37.3701 36.488 37.5858C36.6659 37.8014 36.7844 38.1346 36.8437 38.5952L37.0611 40.1045C37.1006 40.3888 37.1599 40.5946 37.2191 40.7416C37.2883 40.8886 37.3476 40.9866 37.397 41.0454H35.2727V41.0356ZM37.8614 31.1957H35.9644V25.4133H33.8104H32.0715C32.0517 25.3839 32.032 25.3447 32.0023 25.3251C31.8344 25.1682 31.5972 25.08 31.291 25.08C31.0143 25.08 30.7871 25.1486 30.629 25.2859C30.4709 25.4231 30.382 25.5995 30.382 25.8151C30.382 26.0307 30.461 26.2169 30.6191 26.3443C30.7772 26.4815 31.044 26.5893 31.4194 26.6776C32.3976 26.903 33.1188 27.2068 33.5733 27.5988C34.0278 27.9909 34.2551 28.4907 34.2551 29.0983C34.2551 29.5786 34.1365 29.9804 33.8895 30.3234C33.6425 30.6664 33.3065 30.9213 32.8718 31.1075C32.4371 31.2839 31.9233 31.3819 31.3404 31.3819C30.7574 31.3819 30.214 31.2741 29.7595 31.0585C29.305 30.8429 28.9493 30.5488 28.6826 30.1862C28.4158 29.8138 28.2676 29.3826 28.2281 28.9023H30.0559C30.1053 29.2551 30.2436 29.5296 30.4808 29.7256C30.7179 29.9216 31.0143 30.0196 31.3799 30.0196C31.6961 30.0196 31.9431 29.951 32.111 29.804C32.279 29.6668 32.3679 29.4806 32.3679 29.2551C32.3679 29.0003 32.279 28.8141 32.111 28.6769C31.9431 28.5495 31.617 28.4319 31.1428 28.3241C30.214 28.1085 29.5421 27.8144 29.1272 27.442C28.7122 27.0696 28.5146 26.5599 28.5146 25.9327C28.5146 25.4819 28.6233 25.0898 28.8505 24.7664C29.0778 24.4332 29.3939 24.1784 29.8089 24.002C30.2239 23.8255 30.708 23.7275 31.2712 23.7275C32.1209 23.7275 32.7928 23.9236 33.267 24.3254C33.5042 24.5214 33.6721 24.7762 33.8104 25.0506V23.9138H40.0054V25.4133H37.8614V31.1957ZM43.918 41.0356H38.4048V32.95H40.5192V39.3695H43.918V41.0454V41.0356ZM43.3845 29.0689C43.1869 28.5985 43.0881 28.0987 43.0881 27.5498C43.0881 27.001 43.1869 26.4913 43.3845 26.0307C43.5821 25.5603 43.8587 25.1584 44.2144 24.8154C44.5701 24.4724 44.995 24.198 45.4791 24.0118C45.9632 23.8157 46.5066 23.7275 47.0896 23.7275C47.801 23.7275 48.4432 23.8549 48.9866 24.1098C49.5399 24.3646 49.9845 24.7174 50.3303 25.1878C50.6761 25.6583 50.8836 26.2071 50.9725 26.854H49.0162C48.9471 26.3737 48.7396 26.0013 48.4037 25.7269C48.0677 25.4525 47.6429 25.3153 47.1489 25.3153C46.724 25.3153 46.3584 25.4133 46.0522 25.5995C45.7459 25.7857 45.5087 26.0503 45.3408 26.3835C45.1728 26.7168 45.0839 27.1088 45.0839 27.5498C45.0839 27.9909 45.1728 28.3829 45.3408 28.7161C45.5087 29.0493 45.7459 29.3139 46.0522 29.5002C46.3584 29.6864 46.724 29.7844 47.1489 29.7844C47.6429 29.7844 48.0579 29.6472 48.4037 29.3728C48.7396 29.0983 48.9471 28.7259 49.0162 28.2457H50.9725C50.8836 28.8925 50.6761 29.4414 50.3303 29.9118C49.9845 30.3822 49.5399 30.7351 48.9866 30.9899C48.4333 31.2447 47.801 31.3721 47.0896 31.3721C46.5066 31.3721 45.9632 31.2741 45.4791 31.0879C44.995 30.8919 44.5701 30.6272 44.2144 30.2842C43.8587 29.9412 43.5821 29.5394 43.3845 29.0689ZM52.1681 39.1343C51.8124 39.7419 51.2986 40.2123 50.6564 40.5358C50.0043 40.869 49.2435 41.0356 48.3641 41.0356H44.827V32.95H48.3641C49.2336 32.95 50.0043 33.1166 50.6564 33.4499C51.3085 33.7831 51.8124 34.2437 52.1681 34.8514C52.5238 35.459 52.7115 36.1646 52.7115 36.9977C52.7115 37.8308 52.5336 38.5364 52.1681 39.1441V39.1343ZM57.0193 30.3136C56.7822 30.6566 56.4364 30.9115 56.0115 31.0879C55.5768 31.2643 55.0729 31.3623 54.4899 31.3623C53.907 31.3623 53.3636 31.2545 52.919 31.0487C52.4645 30.8331 52.1088 30.5488 51.8519 30.1764C51.5851 29.804 51.4369 29.3826 51.3974 28.9023H53.2154C53.2648 29.2551 53.4031 29.5296 53.6402 29.7256C53.8774 29.9216 54.1738 30.0196 54.5393 30.0196C54.8555 30.0196 55.0926 29.951 55.2705 29.8138C55.4384 29.6766 55.5274 29.4904 55.5274 29.2747C55.5274 29.0199 55.4384 28.8337 55.2705 28.7063C55.1025 28.5789 54.7765 28.4613 54.3022 28.3535C53.3735 28.1379 52.7115 27.8438 52.2965 27.4714C51.8914 27.099 51.6839 26.5991 51.6839 25.9621C51.6839 25.5113 51.7926 25.129 52.0199 24.7958C52.2471 24.4724 52.5633 24.2176 52.9684 24.0314C53.3833 23.8549 53.8675 23.7569 54.4208 23.7569C55.2705 23.7569 55.9325 23.953 56.4067 24.3548C56.881 24.7468 57.1576 25.2957 57.2465 26.0013H55.4681C55.4286 25.7269 55.3298 25.5113 55.1618 25.3447C54.9938 25.1878 54.7567 25.1094 54.4504 25.1094C54.1738 25.1094 53.9564 25.178 53.7884 25.3153C53.6304 25.4525 53.5414 25.6289 53.5414 25.8347C53.5414 26.0405 53.6205 26.2267 53.7687 26.3639C53.9268 26.5011 54.1837 26.6089 54.5591 26.6972C55.5373 26.9226 56.2486 27.2264 56.7031 27.6086C57.1576 28.0007 57.375 28.5005 57.375 29.1081C57.375 29.5786 57.2564 29.9902 57.0094 30.3234L57.0193 30.3136Z" fill="white"/>
</g>
<defs>
<clipPath id="clip0_98_1161">
<rect width="194" height="60" fill="white"/>
</clipPath>
</defs>
</svg>
