<svg width="33" height="33" viewBox="0 0 33 33" fill="none" xmlns="http://www.w3.org/2000/svg">
<g id="emojione:flag-for-mexico">
<path id="Vector" d="M31.9688 16.4999C31.9688 9.74521 27.6891 4.02178 21.6562 1.90771V31.0921C27.6891 28.978 31.9688 23.2546 31.9688 16.4999Z" fill="#ED4C5C"/>
<path id="Vector_2" d="M1.03125 16.4999C1.03125 23.2546 5.3625 28.978 11.3438 31.0921V1.90771C5.3625 4.02178 1.03125 9.74521 1.03125 16.4999Z" fill="#75A843"/>
<path id="Vector_3" d="M21.6562 1.90781C20.0578 1.34063 18.3047 1.03125 16.5 1.03125C14.6953 1.03125 12.9422 1.34063 11.3438 1.90781V31.0922C12.9422 31.6594 14.6953 31.9688 16.5 31.9688C18.3047 31.9688 20.0578 31.6594 21.6562 31.0922V1.90781Z" fill="white"/>
<path id="Vector_4" d="M20.9859 16.3455C20.9344 16.1908 20.8828 16.3971 20.8828 16.4486C20.8828 16.2939 20.8313 16.1908 20.7281 16.0361C20.5734 16.1908 20.5219 16.3971 20.5219 16.6033C20.4703 16.4486 20.4188 16.2939 20.2641 16.2424C20.3672 16.3971 20.3156 16.5002 20.3156 16.6549C20.3156 16.8611 20.4703 17.0158 20.4703 17.2221C20.4703 17.4283 20.3672 17.583 20.2125 17.7377V17.583C19.6969 17.7893 19.8 18.0471 19.8 18.5111C19.8 18.9752 19.5422 18.8721 19.2328 19.1299C19.2844 19.0268 19.2844 18.8721 19.2328 18.7689C19.2328 19.0783 18.8203 19.0783 18.7688 19.3361C18.7172 19.4393 18.7688 19.6455 18.6141 19.6971C18.5109 19.7486 18.3563 19.8518 18.3563 19.9549C18.2531 19.9033 18.15 19.9033 17.9953 19.9033C18.0469 19.8518 18.0984 19.8518 18.15 19.8002C17.6344 19.5424 17.4797 20.1096 17.0156 20.1611C16.8609 20.1611 16.5 19.9549 16.5 20.1611C16.9641 20.1611 17.1703 20.5736 17.5313 20.5736C17.8406 20.5736 18.0984 20.3158 18.4078 20.3158C18.3563 20.3158 18.2016 20.2127 18.0469 20.2127C18.3047 20.058 18.4594 19.7486 18.7688 19.7486C19.2844 19.7486 19.5422 19.6455 19.6969 19.1299C19.6453 19.1299 19.5938 19.1299 19.5422 19.1814C19.5422 18.9752 19.7484 18.7174 19.9547 18.6143C20.4703 18.5111 20.4188 18.0986 20.7281 17.7377C20.625 17.7377 20.5219 17.7893 20.4188 17.8924C20.4188 17.583 20.3672 17.2736 20.625 17.0674C21.1406 16.8096 21.0891 16.7064 20.9859 16.3455ZM12.0141 16.3455C11.9109 16.758 11.8594 16.8611 12.2719 17.1189C12.5813 17.3252 12.4781 17.6346 12.4781 17.9439C12.375 17.8408 12.3234 17.7893 12.1688 17.7893C12.4781 18.0986 12.4266 18.5627 12.9422 18.6658C13.0969 18.7689 13.3547 19.0268 13.3547 19.233C13.3031 19.233 13.2516 19.1814 13.2 19.1814C13.3547 19.6971 13.6125 19.8002 14.1281 19.8002C14.4375 19.8002 14.5922 20.1096 14.85 20.2643C14.6953 20.2643 14.5406 20.3158 14.4891 20.3674C14.7984 20.3674 15.0563 20.6768 15.3656 20.6252C15.7266 20.6252 15.9844 20.2127 16.3969 20.2127C16.3969 20.0064 16.0359 20.2127 15.8813 20.2127C15.4688 20.1096 15.3141 19.5939 14.7469 19.8002C14.7984 19.8518 14.85 19.9033 14.9016 19.9033C14.7984 19.9033 14.6438 19.8518 14.5406 19.9549C14.4891 19.8518 14.3859 19.7486 14.2828 19.6971C14.1797 19.5939 14.1797 19.4393 14.1281 19.3361C14.025 19.0783 13.6641 19.0268 13.6641 18.7689C13.6125 18.8721 13.6125 19.0268 13.6641 19.1299C13.3547 18.8721 13.0969 18.9752 13.0969 18.5111C13.0969 18.0986 13.2 17.7893 12.6844 17.583V17.7377C12.5297 17.583 12.4266 17.4799 12.4266 17.2221C12.4266 17.0158 12.6328 16.8611 12.5813 16.6549C12.5813 16.5002 12.5297 16.3971 12.6328 16.2424C12.4781 16.2939 12.4266 16.4486 12.375 16.6033C12.375 16.3971 12.3234 16.1908 12.1688 16.0361C12.1172 16.1393 12.0656 16.2939 12.0141 16.4486C12.0656 16.3455 12.0141 16.1908 12.0141 16.3455Z" fill="#75A843"/>
<path id="Vector_5" d="M17.893 19.4392C17.7898 19.4392 17.7383 19.336 17.6867 19.2845C17.6867 19.1813 18.0992 19.0782 18.1508 19.0782V18.9751C17.4805 19.1813 15.4695 19.336 15.057 18.6142C14.8508 18.9235 14.4898 18.7173 14.1289 18.4595C14.1805 18.5626 14.3867 19.0782 14.3867 19.0267C14.4898 19.0782 15.1602 19.2329 15.1602 19.3876L15.0055 19.5423C16.0883 19.9032 16.7586 20.0063 17.893 19.4392Z" fill="#428BC1"/>
<path id="Vector_6" d="M17.2219 19.4389C17.2734 19.3873 17.2734 19.3357 17.2734 19.2326L17.2219 19.0779C17.325 18.9748 17.2219 18.717 17.0672 18.7685C16.9641 18.8201 17.0156 18.8201 16.9125 18.7685C16.8609 18.7685 16.8609 18.717 16.8094 18.717H15.8812C15.7781 18.717 15.7781 18.6654 15.675 18.6654C15.5719 18.6139 15.5203 18.717 15.4688 18.7685C15.4688 18.8717 15.5203 18.8717 15.5203 18.9232C15.5203 18.9748 15.4688 19.0264 15.4688 19.1295C15.4688 19.2326 15.5203 19.2842 15.5719 19.3357C15.3656 19.4904 15.5719 19.7482 15.7781 19.5935C15.8297 19.6967 15.9844 19.6967 16.1391 19.6967H16.7063C16.8094 19.6967 17.0156 19.7482 17.0672 19.5935C17.2219 19.8514 17.4281 19.542 17.2219 19.4389Z" fill="#ED4C5C"/>
<path id="Vector_7" d="M18.8719 18.0985C18.4594 17.5829 18.2531 18.3563 17.7891 18.3047C17.8922 17.686 16.9641 17.8922 16.7063 18.0469C16.7578 17.9954 16.8094 17.8922 16.861 17.7891C16.6547 17.7891 16.3969 17.8922 16.2422 17.7376C15.9328 17.5313 15.5203 17.4282 15.2625 17.7891C15.0563 17.4797 14.4891 17.1704 14.1797 17.4797C14.1797 17.1704 13.8703 16.7063 13.5094 16.7579C13.0969 16.8094 13.2516 17.325 13.4578 17.5313C13.6125 17.686 13.8188 17.7376 14.025 17.7376C14.025 17.8407 14.0766 17.8922 14.1281 17.9438C14.386 18.15 14.9016 18.2016 15.1594 17.9954C15.1594 18.511 16.1906 18.511 16.4485 18.2532C16.3453 18.511 16.2422 19.0266 16.6031 19.0266C16.9125 19.0266 16.8094 18.7172 17.0672 18.6141C17.2735 18.511 17.5313 18.4594 17.7375 18.5625C18.0985 18.7688 19.2328 18.7172 18.8719 18.0985Z" fill="#428BC1"/>
<g id="Group">
<path id="Vector_8" d="M14.6439 16.8093C14.5924 16.7062 14.4892 16.6031 14.4892 16.6031C14.283 16.6546 14.283 16.4999 14.2314 16.3452C14.1799 16.0874 13.8189 15.9843 13.8189 15.7781C13.8189 15.5718 14.0252 15.3656 13.8705 15.1593C13.7158 14.9531 13.458 14.8499 13.458 14.9531C13.4064 15.0562 13.6642 15.0562 13.6642 15.314C13.6642 15.6234 13.3549 15.8812 13.7158 16.139C13.9221 16.4484 13.9221 17.0156 14.283 17.0156C14.4377 17.0156 14.5924 16.964 14.6439 16.8093Z" fill="#75A843"/>
<path id="Vector_9" d="M15.4181 16.5514C15.315 16.3451 15.4181 16.0358 15.2118 15.8811C14.954 15.6748 14.4384 16.0873 14.3868 15.5717C14.3868 15.4686 14.954 14.8498 15.0572 14.7983C15.2118 14.592 15.1603 14.2311 15.0056 14.128C14.7993 14.0248 14.7478 14.128 14.5931 14.3342C14.6447 14.3858 14.8509 14.4889 14.8509 14.5405C14.6962 14.9014 14.2322 14.953 14.129 15.3139C14.0259 15.5717 14.0775 15.9842 14.3353 16.1389C14.49 16.242 14.5931 16.242 14.7478 16.242C15.2118 16.1905 14.954 16.2936 15.0056 16.3967C15.0056 16.4998 15.1603 16.8608 15.4181 16.5514ZM13.8712 14.0248C13.8712 14.3342 14.1806 14.2826 14.3868 14.2311C14.3868 14.128 14.3868 14.0248 14.4384 13.9217C14.3353 13.9733 14.1806 13.9733 14.129 13.9217C13.9743 13.8186 14.49 13.6123 14.4384 13.6123C14.4384 13.6123 13.9228 13.8701 14.129 13.5608C14.1806 13.4576 14.2837 13.3545 14.3353 13.2514C14.3868 13.1483 14.1806 13.2514 14.1806 13.2514C14.129 13.2514 14.0775 13.2514 14.0259 13.303C13.7165 13.5608 13.8197 13.7155 13.8712 14.0248Z" fill="#75A843"/>
</g>
<path id="Vector_10" d="M19.3358 14.025C19.078 13.6641 18.0983 12.4781 16.7061 12.375C16.5514 12.375 16.1389 12.5297 15.9842 12.5812C15.5201 12.8906 16.4998 13.1484 16.5514 13.3547C16.5514 13.4578 16.603 13.5094 16.603 13.6125C16.4483 13.3547 16.2936 13.2 16.242 13.0969C15.9842 13.2 15.5717 13.0453 15.5201 12.7875C15.4686 12.8906 15.4686 12.9422 15.3654 13.0453C15.3654 12.8906 15.3139 12.8906 15.2623 12.7875C15.2623 12.9422 15.2623 13.1484 15.1076 13.2C15.1592 13.0969 15.1076 12.9937 15.0561 12.8906C15.0561 13.0453 15.0561 13.1484 14.953 13.2516C15.0045 13.1484 14.9014 13.0969 14.9014 12.9938C14.8498 13.4063 14.2826 13.5609 14.8498 13.7156C15.0561 13.7672 15.1592 13.7156 15.3654 13.8187C15.417 13.8703 15.5201 13.9734 15.5201 13.9219C15.5201 13.9734 15.3139 14.1797 15.4686 14.2312C15.417 14.2828 15.2623 14.5922 15.2623 14.5922C15.417 14.5922 15.3139 14.6953 15.2108 14.7984C15.0561 15.0563 15.2108 15.3141 15.2623 15.6234C15.2623 15.5203 15.417 15.675 15.417 15.8297C15.417 16.0359 15.6233 16.1391 15.6748 16.2937C15.417 16.0359 15.3655 16.2937 15.6748 16.4484C15.417 16.4484 15.3654 16.6031 15.6233 16.7063C15.0045 16.7063 15.5201 16.9641 15.6233 17.0156C16.0358 17.1187 16.3451 16.8094 16.3451 16.7578C16.3451 16.7578 17.1701 17.5828 17.2217 17.5828C17.2733 17.5828 17.6858 17.3766 17.7889 17.4797C17.892 17.6344 17.9951 17.4797 18.0983 17.5312C18.2014 17.6344 18.6139 17.5312 18.717 17.4797C18.7686 17.4797 19.2842 17.3766 19.1811 17.2734C18.9233 17.0672 18.6139 16.8609 18.3561 16.6547C18.0983 16.4484 17.8405 16.2938 17.6342 16.0875C17.5311 15.9844 17.5311 15.7781 17.4795 15.6234C17.9436 16.0875 18.4076 16.3453 18.3561 15.4687C18.6654 15.7266 19.2842 17.1703 19.3358 17.1703C19.4905 17.1703 19.3358 15.6234 19.3358 15.4687C19.542 15.675 19.542 17.3766 19.5936 17.3766C19.8514 17.4281 20.2123 15.1594 19.3358 14.025Z" fill="#89664C"/>
<path id="Vector_11" d="M15.623 16.6549C15.5715 16.6549 15.3137 16.294 15.3137 16.2424C15.4684 16.8612 14.8496 16.5002 15.0043 16.2424C14.798 16.1909 14.2824 16.5002 14.4887 16.8096C14.3855 17.0159 15.2105 16.8612 15.2621 16.758C15.4684 17.2221 15.984 16.7065 15.623 16.6549ZM18.0465 18.2018C18.3043 17.8409 17.2215 17.7377 17.3246 17.3252C17.1699 17.4284 16.9637 17.7893 16.7574 17.6862C16.6543 17.6346 16.2418 17.8924 16.448 18.0471C16.448 17.8409 16.5512 17.9955 16.7059 17.944C16.6543 18.0987 16.4996 18.2534 16.7574 18.3565C16.6543 18.0471 17.0668 18.2018 17.0152 18.0471C16.9121 17.944 17.3762 17.944 17.4277 17.944C17.5824 17.944 18.098 18.0987 17.8918 18.2534C17.8918 18.2534 17.9949 18.2534 18.0465 18.2018ZM14.5918 13.7674C14.5402 13.8705 14.334 14.0252 14.334 14.1799C14.334 14.283 14.5918 14.5409 14.6949 14.3862C14.3855 14.1799 14.7465 14.0252 14.9012 14.0252C14.9527 14.0252 14.9527 14.1284 14.9527 14.1284C15.0043 14.1799 15.4168 14.0252 15.3652 13.9221C15.4168 13.7159 14.7465 13.7159 14.5918 13.7674Z" fill="#FFCE31"/>
</g>
</svg>
