<svg width="33" height="33" viewBox="0 0 33 33" fill="none" xmlns="http://www.w3.org/2000/svg">
<g id="ant-design:stop-outlined">
<path id="Vector" d="M16.5 2.0625C24.4729 2.0625 30.9375 8.52715 30.9375 16.5C30.9375 24.4729 24.4729 30.9375 16.5 30.9375C8.52715 30.9375 2.0625 24.4729 2.0625 16.5C2.0625 8.52715 8.52715 2.0625 16.5 2.0625ZM16.5 28.4883C23.1193 28.4883 28.4883 23.1193 28.4883 16.5C28.4883 13.6318 27.4796 10.9957 25.7974 8.9332L8.9332 25.7974C10.9957 27.4796 13.6318 28.4883 16.5 28.4883ZM7.20264 24.0668L24.0668 7.20264C22.0043 5.52041 19.3682 4.51172 16.5 4.51172C9.88066 4.51172 4.51172 9.88066 4.51172 16.5C4.51172 19.3682 5.52041 22.0043 7.20264 24.0668Z" fill="#5E6787"/>
</g>
</svg>
